# xmcd
#
# Track frame offsets:
#	150
#	13836
#	29804
#	51977
#	69871
#	82020
#	102219
#	113716
#	133687
#	150819
#	167046
#	185411
#	202582
#	225979
#	250608
#	273000
#	296208
#	313863
#	320490
#	330996
#	343395
#
# Disc length: 4740 seconds
#
# Revision: 1
# Processed by: cddbd v1.5.2PL0 Copyright (c) Steve Scherf et al.
# Submitted via: audiograbber 1.83.01
#
DISCID=20128215
DTITLE=Lightnin' Hopkins - The Blues Anthology
DYEAR=1900
DGENRE=
TTITLE0=Mojo Hand
TTITLE1=Coffee for Mama
TTITLE2=Awful Dream
TTITLE3=Black Mare Trot
TTITLE4=Have You Ever Loved a Woman?
TTITLE5=Glory Bee
TTITLE6=Sometimes She Will
TTITLE7=Shine on, Moon!
TTITLE8=Santa
TTITLE9=How Long Has the Train Been Gone?
TTITLE10=Shake That Thing
TTITLE11=Bring Me My Shotgun
TTITLE12=Last Night
TTITLE13=Walk a Long Time
TTITLE14=Houston Bound
TTITLE15=Baby I Don't Care
TTITLE16=I'm Leaving You Now
TTITLE17=Just Pickin'
TTITLE18=Driftin' Blues
TTITLE19=Lonesome Dog Blues
TTITLE20=Sittin' Down Thinkin'
EXTD=
EXTT0=
EXTT1=
EXTT2=
EXTT3=
EXTT4=
EXTT5=
EXTT6=
EXTT7=
EXTT8=
EXTT9=
EXTT10=
EXTT11=
EXTT12=
EXTT13=
EXTT14=
EXTT15=
EXTT16=
EXTT17=
EXTT18=
EXTT19=
EXTT20=
PLAYORDER=
